<svg width="24" height="28" viewBox="0 0 24 28" fill="none" xmlns="http://www.w3.org/2000/svg">
<path d="M2.54308 6.11393L3.25008 5.33337L20.0001 23.8259L19.2931 24.6065L15.9451 20.9102C14.5781 21.5439 13.0751 21.8939 11.5001 21.8939C9.33667 21.8947 7.21693 21.2217 5.38435 19.9523C3.55177 18.6829 2.08069 16.8686 1.14008 14.7177C2.10571 12.5172 3.62402 10.6696 5.51408 9.39512L2.54308 6.11393ZM11.5001 20.7899C12.7931 20.7899 14.0311 20.5315 15.1751 20.0601L14.0461 18.8147C13.1797 19.4709 12.1327 19.7717 11.0866 19.6651C10.0404 19.5584 9.06101 19.0509 8.31817 18.2307C7.57533 17.4104 7.11586 16.3291 7.01941 15.1741C6.92296 14.019 7.1956 12.8632 7.79008 11.9068L6.24408 10.2C4.56659 11.2735 3.18951 12.8366 2.26408 14.7177C3.16497 16.5548 4.49888 18.089 6.1247 19.1579C7.75053 20.2268 9.60781 20.7907 11.5001 20.7899ZM20.7351 14.7177C19.8343 12.8807 18.5005 11.3466 16.8749 10.2777C15.2492 9.20882 13.3922 8.64486 11.5001 8.64548C10.3771 8.64396 9.26127 8.84153 8.19508 9.23061L7.41208 8.36726C8.71785 7.81956 10.1032 7.5397 11.5001 7.54144C13.6635 7.54064 15.7832 8.21359 17.6158 9.48299C19.4484 10.7524 20.9195 12.5668 21.8601 14.7177C20.9482 16.7961 19.5421 18.5621 17.7921 19.8271L17.0681 19.0278C18.6058 17.9632 19.8689 16.4787 20.7351 14.7177ZM11.5001 9.74951C12.2891 9.74929 13.0643 9.97812 13.748 10.4131C14.4316 10.848 14.9997 11.4737 15.3952 12.2275C15.7906 12.9813 15.9996 13.8367 16.0012 14.7078C16.0028 15.5789 15.7968 16.4352 15.4041 17.1907L14.6641 16.3737C14.9745 15.6531 15.0753 14.844 14.9525 14.0575C14.8297 13.2711 14.4893 12.546 13.9782 11.9817C13.4671 11.4174 12.8103 11.0417 12.098 10.9061C11.3857 10.7705 10.6528 10.8817 10.0001 11.2245L9.26008 10.4075C9.94153 9.97503 10.7141 9.7481 11.5001 9.74951ZM8.00008 14.7177C7.99992 15.4041 8.1654 16.0782 8.47948 16.6706C8.79356 17.263 9.24491 17.7524 9.7871 18.0883C10.3293 18.4243 10.9428 18.5947 11.5644 18.5821C12.1861 18.5695 12.7934 18.3742 13.3241 18.0165L8.51208 12.7039C8.17621 13.3101 7.99899 14.0071 8.00008 14.7177Z" fill="black"/>
</svg>
