<svg width="23" height="20" viewBox="0 0 23 20" fill="none" xmlns="http://www.w3.org/2000/svg">
<g clip-path="url(#clip0_184_594)">
<path d="M22.5374 10.1871C22.5374 9.3677 22.4623 8.76977 22.2999 8.14969H11.7402V11.848H17.9385C17.8136 12.7671 17.1388 14.1512 15.6391 15.0813L15.6181 15.2051L18.9569 17.4969L19.1882 17.5174C21.3126 15.7789 22.5374 13.2211 22.5374 10.1871Z" fill="#222831" fill-opacity="0.8"/>
<path d="M11.7402 19.9313C14.7768 19.9313 17.3262 19.0454 19.1882 17.5174L15.6391 15.0813C14.6894 15.6682 13.4147 16.0779 11.7402 16.0779C8.76596 16.0779 6.24164 14.3395 5.34178 11.9366L5.20989 11.9466L1.73815 14.3273L1.69275 14.4391C3.54225 17.6945 7.34127 19.9313 11.7402 19.9313Z" fill="#222831" fill-opacity="0.8"/>
<path d="M5.3418 11.9366C5.10436 11.3166 4.96695 10.6521 4.96695 9.96565C4.96695 9.27908 5.10436 8.61473 5.32931 7.99466L5.32302 7.8626L1.80778 5.44366L1.69276 5.49214C0.930494 6.84305 0.493103 8.36008 0.493103 9.96565C0.493103 11.5712 0.930494 13.0882 1.69276 14.4391L5.3418 11.9366Z" fill="#222831" fill-opacity="0.8"/>
<path d="M11.7402 3.85336C13.8521 3.85336 15.2767 4.66168 16.089 5.33718L19.2632 2.59107C17.3137 0.985496 14.7768 0 11.7402 0C7.34127 0 3.54225 2.23672 1.69275 5.49214L5.32929 7.99466C6.24164 5.59183 8.76596 3.85336 11.7402 3.85336Z" fill="#222831" fill-opacity="0.8"/>
</g>
<defs>
<clipPath id="clip0_184_594">
<rect x="0.493103" width="22.0548" height="20" rx="5" fill="white"/>
</clipPath>
</defs>
</svg>
