<svg width="23" height="20" viewBox="0 0 23 20" fill="none" xmlns="http://www.w3.org/2000/svg">
<path d="M22.9315 10.0611C22.9315 4.50451 17.9637 0 11.8356 0C5.70754 0 0.739746 4.50451 0.739746 10.0611C0.739746 13.8714 3.07569 17.1868 6.51985 18.8945C8.30011 19.7772 10.1019 18.2229 10.1019 16.2359V14.3781C10.1019 13.6001 9.47123 12.9694 8.69325 12.9694C7.91527 12.9694 7.28459 12.3387 7.28459 11.5607V11.4698C7.28459 10.6918 7.91527 10.0611 8.69325 10.0611C9.47123 10.0611 10.1019 9.43043 10.1019 8.65245V7.84452C10.1019 5.32296 11.7584 3.93012 14.293 3.93012C14.7595 3.93012 15.2343 3.95914 15.6421 3.99488C16.2972 4.05229 16.7768 4.6118 16.7768 5.26939C16.7768 6.0057 16.1799 6.6026 15.4436 6.6026H15.3776C13.9992 6.6026 13.5694 7.37816 13.5694 8.17381V8.65164C13.5694 9.43007 14.2004 10.0611 14.9788 10.0611C15.8512 10.0611 16.5141 10.8455 16.3686 11.7057L16.3523 11.8018C16.2383 12.476 15.6544 12.9694 14.9706 12.9694C14.1967 12.9694 13.5694 13.5968 13.5694 14.3707V16.2359C13.5694 18.2229 15.3712 19.7772 17.1514 18.8945C20.5956 17.1868 22.9315 13.8714 22.9315 10.0611Z" fill="#222831" fill-opacity="0.8"/>
</svg>
