<svg width="21" height="20" viewBox="0 0 21 20" fill="none" xmlns="http://www.w3.org/2000/svg">
<path d="M1.54301 1.11392L2.25002 0.333372L19 18.8259L18.293 19.6065L14.945 15.9102C13.578 16.5439 12.075 16.8939 10.5 16.8939C8.33661 16.8947 6.21687 16.2217 4.38429 14.9523C2.55171 13.6829 1.08063 11.8686 0.140015 9.71766C1.10565 7.51719 2.62396 5.66962 4.51402 4.39511L1.54301 1.11392ZM10.5 15.7898C11.793 15.7898 13.031 15.5315 14.175 15.0601L13.046 13.8147C12.1797 14.4709 11.1327 14.7717 10.0865 14.6651C9.04033 14.5584 8.06095 14.0509 7.31811 13.2307C6.57527 12.4104 6.1158 11.3291 6.01935 10.1741C5.92289 9.01904 6.19554 7.86316 6.79002 6.90679L5.24402 5.19995C3.56653 6.27347 2.18945 7.83659 1.26401 9.71766C2.1649 11.5548 3.49882 13.089 5.12464 14.1579C6.75047 15.2268 8.60775 15.7907 10.5 15.7898ZM19.735 9.71766C18.8342 7.88066 17.5005 6.34659 15.8748 5.2777C14.2492 4.20882 12.3921 3.64486 10.5 3.64547C9.37708 3.64396 8.26121 3.84152 7.19502 4.23061L6.41202 3.36726C7.71779 2.81956 9.10318 2.5397 10.5 2.54144C12.6634 2.54064 14.7832 3.21359 16.6157 4.48299C18.4483 5.75239 19.9194 7.56675 20.86 9.71766C19.9481 11.7961 18.5421 13.5621 16.792 14.8271L16.068 14.0278C17.6058 12.9632 18.8688 11.4787 19.735 9.71766ZM10.5 4.74951C11.289 4.74929 12.0643 4.97812 12.7479 5.41306C13.4316 5.84799 13.9996 6.47373 14.3951 7.22753C14.7906 7.98133 14.9996 8.83668 15.0011 9.7078C15.0027 10.5789 14.7968 11.4352 14.404 12.1907L13.664 11.3737C13.9745 10.6531 14.0752 9.84395 13.9524 9.05754C13.8296 8.27113 13.4893 7.54598 12.9782 6.9817C12.4671 6.41741 11.8102 6.04168 11.0979 5.9061C10.3856 5.77052 9.65277 5.88174 9.00002 6.2245L8.26002 5.40751C8.94147 4.97503 9.71399 4.7481 10.5 4.74951ZM7.00002 9.71766C6.99986 10.4041 7.16534 11.0782 7.47942 11.6706C7.7935 12.263 8.24485 12.7523 8.78704 13.0883C9.32924 13.4243 9.9427 13.5947 10.5643 13.5821C11.186 13.5695 11.7934 13.3742 12.324 13.0165L7.51202 7.7039C7.17615 8.31006 6.99893 9.00708 7.00002 9.71766Z" fill="black"/>
</svg>
